<svg width="87" height="30" viewBox="0 0 87 30" fill="none" xmlns="http://www.w3.org/2000/svg">
<path d="M77.1888 29.9983H73.2639L76.9672 22.0332L70.3836 8.63325H74.53L78.9613 18.2538L83.1077 8.63325H87.0008L77.1888 29.9983Z" fill="white"/>
<path d="M69.0496 8.63325L62.7193 15.0677L69.1762 23.8449H64.6817L60.1555 17.629L58.2564 19.5969V23.8449H54.6164V1.23047H58.2564V14.7866L64.1752 8.63325H69.0496Z" fill="white"/>
<path d="M50.7371 6.88407L47.3187 7.94608C47.0971 6.57172 45.926 4.54142 42.9191 4.54142C40.6401 4.54142 39.0575 6.04072 39.0575 7.72743C39.0575 9.13302 39.9438 10.195 41.6846 10.5698L44.9131 11.2258C48.8696 12.0067 50.9903 14.4743 50.9903 17.5978C50.9903 21.0337 48.1733 24.3134 43.0457 24.3134C37.3483 24.3134 34.7212 20.6901 34.373 17.5041L37.9181 16.5046C38.1396 18.816 39.8172 20.94 43.0457 20.94C45.7361 20.94 47.1287 19.5969 47.1287 17.8789C47.1287 16.4421 46.0526 15.2864 44.1218 14.8803L40.9566 14.2244C37.5382 13.5372 35.2593 11.3195 35.2593 8.00855C35.2593 4.29154 38.7094 1.23047 42.8874 1.23047C48.1733 1.23047 50.2306 4.41648 50.7371 6.88407Z" fill="white"/>
<path d="M2.48784 5.29825C4.1048 3.10232 6.38481 1.46784 9.0011 0.629076C11.6174 -0.209692 14.4356 -0.209692 17.0519 0.629077L13.0265 12.8531L2.48784 5.29825Z" fill="white"/>
<path d="M1.41981 18.6883C0.64318 17.1844 0.174375 15.5443 0.0401573 13.8616C-0.0940602 12.1789 0.108939 10.4866 0.637564 8.88129L13.0265 12.8531L1.41981 18.6883Z" fill="white"/>
<path d="M18.9419 1.40162C22.02 2.94959 24.3488 5.64064 25.416 8.88279L13.0265 12.8531L18.9419 1.40162Z" fill="white"/>
<path d="M26.053 12.8531C26.053 14.8815 25.5665 16.881 24.6332 18.6883C23.7 20.4956 22.3464 22.0593 20.6833 23.2515L13.0265 12.8531H26.053Z" fill="white"/>
<path d="M17.0519 25.0772C14.4356 25.9159 11.6174 25.9159 9.0011 25.0772L13.0265 12.8531L17.0519 25.0772Z" fill="white"/>
<path d="M5.36972 23.2515C4.26384 22.4587 3.29131 21.4992 2.48784 20.408L13.0265 12.8531L5.36972 23.2515Z" fill="white"/>
</svg>
